<svg xmlns="http://www.w3.org/2000/svg" width="184" height="40" fill="none"><path fill="#FFF" fill-rule="evenodd" d="M20.168 36.302c-9.015 0-16.324-7.298-16.324-16.301 0-9.003 7.309-16.302 16.324-16.302 9.013 0 16.322 7.3 16.322 16.302 0 9.003-7.309 16.3-16.322 16.3zM20.027 0C8.966 0 0 8.955 0 20c0 11.046 8.966 20 20.027 20 11.059 0 20.025-8.954 20.025-20 0-11.045-8.966-20-20.025-20z" clip-rule="evenodd"/><path fill="#FFF" fill-rule="evenodd" d="M31.751 16.531v6.936h-8.256v8.257h-6.937v-8.257H8.3V16.53h8.258V8.276h6.937v8.255h8.256zM47.023 28.58V12.938c0-.507.178-.939.534-1.294a1.96 1.96 0 0 1 1.297-.584h3.508l3.457 13.356 3.46-13.356h5.338v17.52H61.26V14.463L57.702 28.58H53.99l-3.611-14.117V28.58h-3.356zm22.414-8.126h5.185c-.068-.914-.304-1.591-.711-2.032-.441-.474-1.067-.711-1.882-.711-.746 0-1.356.237-1.83.71-.476.477-.73 1.153-.762 2.033zm6.102 3.96h2.542c-.374 1.423-1.084 2.506-2.136 3.251-1.051.78-2.373 1.167-3.966 1.167-1.933 0-3.44-.625-4.525-1.878-1.086-1.218-1.628-2.962-1.628-5.231 0-2.166.525-3.859 1.576-5.078 1.085-1.252 2.593-1.878 4.526-1.878 2.033 0 3.61.61 4.73 1.827 1.084 1.253 1.626 2.997 1.626 5.23v.56c0 .17-.018.288-.052.355h-8.795c.032 1.05.286 1.827.763 2.335.44.543 1.1.813 1.982.813.577 0 1.068-.117 1.475-.356a.696.696 0 0 0 .28-.177l.28-.28c.032-.1.16-.236.381-.405.22-.17.533-.255.94-.255zm7.108-2.69c0 1.355.254 2.386.763 3.099.509.708 1.237 1.065 2.186 1.065.916 0 1.628-.357 2.136-1.065.474-.713.713-1.744.713-3.099 0-1.219-.255-2.184-.764-2.895-.542-.677-1.271-1.015-2.186-1.015-.881 0-1.576.355-2.085 1.067-.51.677-.763 1.624-.763 2.843zm5.798-10.664h1.728c.475 0 .881.176 1.22.533.338.355.508.754.508 1.193v9.903c0 2.402-.694 4.028-2.085 4.875a8.544 8.544 0 0 1-4.524 1.27 8.044 8.044 0 0 1-2.593-.432c-.848-.288-1.527-.754-2.034-1.397-.985-1.253-1.475-2.961-1.475-5.129 0-2.132.49-3.841 1.475-5.13 1.017-1.318 2.322-1.98 3.914-1.98.847 0 1.594.172 2.237.508a4.851 4.851 0 0 1 1.63 1.575V11.06zm9.318 9.8h4.984c.507 0 .94-.178 1.296-.533.356-.356.535-.787.535-1.295v-1.169h-6.815v-3.756h9.152V11.11H96.034c-.508 0-.94.179-1.296.533a1.765 1.765 0 0 0-.534 1.295v15.641h12.711v-3.25h-9.152V20.86zm33.363 3.911c-.509.71-1.204 1.067-2.084 1.067-.95 0-1.678-.357-2.187-1.067-.509-.643-.764-1.608-.764-2.895 0-1.387.238-2.404.713-3.046.509-.711 1.22-1.067 2.136-1.067.948 0 1.677.356 2.186 1.067.509.71.763 1.725.763 3.046 0 1.219-.254 2.184-.763 2.895zm2.745-8.126c-.508-.61-1.193-1.074-2.058-1.397a7.36 7.36 0 0 0-2.568-.481 8.416 8.416 0 0 0-4.526 1.294c-1.39.864-2.084 2.482-2.084 4.85v11.296h3.456v-5.404c.409.711.951 1.235 1.628 1.574.643.303 1.39.456 2.238.456 1.593 0 2.899-.642 3.914-1.93 1.018-1.319 1.527-3.045 1.527-5.18 0-2.063-.509-3.757-1.527-5.078zm2.788 11.935v-6.552c0-1.32.194-2.428.585-3.325.389-.897.923-1.617 1.602-2.16a6.306 6.306 0 0 1 2.263-1.117 10.073 10.073 0 0 1 2.669-.355h.509v3.606h-1.17c-.983 0-1.712.236-2.187.711-.475.474-.712 1.218-.712 2.234v6.958h-3.559zm11.939-8.126h5.187c-.068-.914-.306-1.591-.713-2.032-.441-.474-1.067-.711-1.881-.711-.746 0-1.356.237-1.83.71-.475.477-.731 1.153-.763 2.033zm6.102 3.96h2.542c-.373 1.423-1.086 2.506-2.137 3.251-1.05.78-2.372 1.167-3.965 1.167-1.931 0-3.441-.625-4.525-1.878-1.085-1.218-1.628-2.962-1.628-5.231 0-2.166.525-3.859 1.576-5.078 1.085-1.252 2.594-1.878 4.526-1.878 2.035 0 3.611.61 4.728 1.827 1.086 1.253 1.627 2.997 1.627 5.23v.56c0 .17-.016.288-.05.355h-8.796c.032 1.05.288 1.827.763 2.335.439.543 1.101.813 1.983.813.575 0 1.068-.117 1.473-.356a.695.695 0 0 0 .281-.177l.279-.28c.033-.1.161-.236.382-.405.218-.17.533-.255.941-.255zm3.651-.304h3.457c.034.678.289 1.187.763 1.525.508.337 1.185.507 2.034.507.61 0 1.134-.118 1.577-.357.407-.235.609-.558.609-.963 0-.61-.712-1.067-2.135-1.371-.611-.102-1.068-.204-1.374-.306-1.796-.44-3-.963-3.609-1.574-.679-.61-1.018-1.421-1.018-2.438 0-1.285.491-2.352 1.475-3.197 1.017-.78 2.339-1.17 3.966-1.17 1.763 0 3.171.39 4.221 1.17.982.845 1.508 1.946 1.576 3.299h-2.187c-.644 0-1.136-.288-1.474-.863-.136-.134-.271-.27-.407-.406-.406-.304-.967-.457-1.678-.457-.677 0-1.186.101-1.524.304-.307.203-.459.509-.459.914 0 .543.881 1 2.644 1.371.204.068.383.12.534.154.153.034.297.05.433.05 1.728.44 2.932.949 3.609 1.523.645.61.967 1.422.967 2.439 0 1.489-.543 2.64-1.627 3.453-1.018.745-2.542 1.115-4.577 1.115-1.932 0-3.373-.388-4.323-1.166-.982-.78-1.473-1.913-1.473-3.402v-.154zm12.905 0h3.457c.034.678.288 1.187.763 1.525.509.337 1.187.507 2.034.507.611 0 1.135-.118 1.577-.357.407-.235.61-.558.61-.963 0-.61-.712-1.067-2.136-1.371-.609-.102-1.068-.204-1.372-.306-1.797-.44-3-.963-3.611-1.574-.677-.61-1.017-1.421-1.017-2.438 0-1.285.492-2.352 1.476-3.197 1.017-.78 2.337-1.17 3.965-1.17 1.762 0 3.17.39 4.22 1.17.982.845 1.51 1.946 1.576 3.299h-2.185c-.646 0-1.136-.288-1.476-.863l-.407-.406c-.404-.304-.965-.457-1.676-.457-.679 0-1.188.101-1.528.304-.304.203-.456.509-.456.914 0 .543.88 1 2.643 1.371.204.068.383.12.534.154.153.034.297.05.434.05 1.728.44 2.931.949 3.61 1.523.643.61.965 1.422.965 2.439 0 1.489-.543 2.64-1.626 3.453-1.017.745-2.543 1.115-4.576 1.115-1.933 0-3.374-.388-4.324-1.166-.983-.78-1.474-1.913-1.474-3.402v-.154zm-62.289-9.055 4.168 6.567-4.423 6.957h4.119l2.492-4.266 2.389 4.266h4.068l-4.474-6.907 4.288-6.604h-3.955l-2.418 4.065-2.348-4.078s-3.918-.012-3.906 0z" clip-rule="evenodd"/></svg>